# xmcd
#
# Track frame offsets:
#	150
#	11068
#	23305
#	36494
#	47519
#	62518
#	75194
#	87082
#	102551
#	111877
#	129929
#	139834
#	152570
#	168334
#	182867
#	197790
#	211596
#	229504
#	249230
#	259868
#
# Disc length: 3618 seconds
#
# Revision: 0
# Processed by: cddbd v1.4PL0 Copyright (c) Steve Scherf et al.
# Submitted via: dBpowerAMP V4.0
#
DISCID=f40e2014
DTITLE=Susan McCann - Greatest Hits volume 2
DYEAR=1900
DGENRE=
TTITLE0=Act naturally
TTITLE1=River road
TTITLE2=Chevrolet
TTITLE3=Single girl
TTITLE4=It's you It's you It's you
TTITLE5=Even cowgirls get the blues
TTITLE6=Country music in my soul
TTITLE7=Coul i have this dance
TTITLE8=It takes people like you
TTITLE9=If those lips could only speak
TTITLE10=blue Jean country queen
TTITLE11=Jealous heart
TTITLE12=Papa's wagon
TTITLE13=My Tennessee mountain home
TTITLE14=Baby blue
TTITLE15=Have i told you lately that i love you
TTITLE16=Buried treasure
TTITLE17=Part of me
TTITLE18=I feel sorry for anyone who isn't me tonight
TTITLE19=Wishful drinkin
EXTD=
EXTT0=
EXTT1=
EXTT2=
EXTT3=
EXTT4=
EXTT5=
EXTT6=
EXTT7=
EXTT8=
EXTT9=
EXTT10=
EXTT11=
EXTT12=
EXTT13=
EXTT14=
EXTT15=
EXTT16=
EXTT17=
EXTT18=
EXTT19=
PLAYORDER=
